<svg xmlns="http://www.w3.org/2000/svg" viewBox="0 0 64 64" role="img" aria-label="KittyLog icon">
  <defs>
    <linearGradient id="g" x1="0%" y1="0%" x2="100%" y2="100%">
      <stop offset="0%" stop-color="#22d3ee"/>
      <stop offset="100%" stop-color="#a855f7"/>
    </linearGradient>
  </defs>
  <rect width="64" height="64" rx="14" fill="#0f172a"/>
  <path fill="url(#g)" d="M32 18c4 0 6 2 6 6 0 7-3 12-6 12s-6-5-6-12c0-4 2-6 6-6Zm-10 9c2 0 3 2 3 4s-1 5-3 5-3-3-3-5 1-4 3-4Zm20 0c2 0 3 2 3 4s-1 5-3 5-3-3-3-5 1-4 3-4Zm-16 13c0-2 3-3 6-3s6 1 6 3-3 5-6 5-6-3-6-5Z"/>
</svg>
